<?xml version="1.0" standalone="no"?>
<!DOCTYPE svg PUBLIC "-//W3C//DTD SVG 20010904//EN"
 "http://www.w3.org/TR/2001/REC-SVG-20010904/DTD/svg10.dtd">
<svg version="1.0" xmlns="http://www.w3.org/2000/svg"
 width="512.000000pt" height="512.000000pt" viewBox="0 0 512.000000 512.000000"
 preserveAspectRatio="xMidYMid meet">
<metadata>
Created by potrace 1.16, written by Peter Selinger 2001-2019
</metadata>
<g transform="translate(0.000000,512.000000) scale(0.100000,-0.100000)"
fill="#000000" stroke="none">
<path d="M0 4360 l0 -450 150 0 150 0 0 -1350 0 -1350 -150 0 -150 0 0 -450 0
-450 2560 0 2560 0 0 450 0 450 -150 0 -150 0 0 1350 0 1350 150 0 150 0 0
450 0 450 -2560 0 -2560 0 0 -450z m810 0 l0 -150 -255 0 -255 0 0 150 0 150
255 0 255 0 0 -150z m800 0 l0 -150 -250 0 -250 0 0 150 0 150 250 0 250 0 0
-150z m800 0 l0 -150 -250 0 -250 0 0 150 0 150 250 0 250 0 0 -150z m800 0
l0 -150 -250 0 -250 0 0 150 0 150 250 0 250 0 0 -150z m800 0 l0 -150 -250 0
-250 0 0 150 0 150 250 0 250 0 0 -150z m810 0 l0 -150 -255 0 -255 0 0 150 0
150 255 0 255 0 0 -150z m-300 -1800 l0 -1350 -1960 0 -1960 0 0 1350 0 1350
1960 0 1960 0 0 -1350z m-3710 -1800 l0 -150 -255 0 -255 0 0 150 0 150 255 0
255 0 0 -150z m800 0 l0 -150 -250 0 -250 0 0 150 0 150 250 0 250 0 0 -150z
m800 0 l0 -150 -250 0 -250 0 0 150 0 150 250 0 250 0 0 -150z m800 0 l0 -150
-250 0 -250 0 0 150 0 150 250 0 250 0 0 -150z m800 0 l0 -150 -250 0 -250 0
0 150 0 150 250 0 250 0 0 -150z m810 0 l0 -150 -255 0 -255 0 0 150 0 150
255 0 255 0 0 -150z"/>
<path d="M2110 2560 l0 -880 655 437 c360 240 655 439 655 443 0 4 -295 203
-655 443 l-655 437 0 -880z m770 0 c0 -4 -106 -77 -235 -163 l-235 -157 0 320
0 320 235 -157 c129 -86 235 -159 235 -163z"/>
</g>
</svg>
